<?xml version="1.0" encoding="UTF-8" standalone="no"?>
<svg
   xmlns:dc="http://purl.org/dc/elements/1.1/"
   xmlns:cc="http://creativecommons.org/ns#"
   xmlns:rdf="http://www.w3.org/1999/02/22-rdf-syntax-ns#"
   xmlns:svg="http://www.w3.org/2000/svg"
   xmlns="http://www.w3.org/2000/svg"
   xmlns:sodipodi="http://sodipodi.sourceforge.net/DTD/sodipodi-0.dtd"
   xmlns:inkscape="http://www.inkscape.org/namespaces/inkscape"
   viewBox="0 0 64 64"
   enable-background="new 0 0 64 64"
   id="svg2"
   version="1.1"
   inkscape:version="0.91 r13725"
   sodipodi:docname="smiley.svg">
  <metadata
     id="metadata24">
    <rdf:RDF>
      <cc:Work
         rdf:about="">
        <dc:format>image/svg+xml</dc:format>
        <dc:type
           rdf:resource="http://purl.org/dc/dcmitype/StillImage" />
        <dc:title></dc:title>
      </cc:Work>
    </rdf:RDF>
  </metadata>
  <defs
     id="defs22" />
  <sodipodi:namedview
     pagecolor="#ffdd67"
     bordercolor="#666666"
     borderopacity="1"
     objecttolerance="10"
     gridtolerance="10"
     guidetolerance="10"
     inkscape:pageopacity="1"
     inkscape:pageshadow="2"
     inkscape:window-width="1341"
     inkscape:window-height="707"
     id="namedview20"
     showgrid="false"
     inkscape:zoom="7.2741699"
     inkscape:cx="18.733882"
     inkscape:cy="32"
     inkscape:window-x="0"
     inkscape:window-y="280"
     inkscape:window-maximized="0"
     inkscape:current-layer="svg2" />
  <g
     id="g4152"
     transform="matrix(0.5043313,0,0,0.5303015,15.861398,12.909146)">
    <circle
       r="0"
       style="fill:#ffdd67;fill-opacity:1"
       id="circle4"
       cy="32"
       cx="32" />
    <path
       id="path6"
       d="M 49.7,34.4 C 49.3,33.9 48.6,34 47.8,34 32,34 32,34 16.2,34 15.4,34 14.7,33.9 14.3,34.4 10.4,39.4 15,54 32,54 49,54 53.6,39.4 49.7,34.4"
       inkscape:connector-curvature="0"
       style="fill:#664e27" />
    <path
       id="path8"
       d="m 33.8,41.7 c -0.6,0 -1.5,0.5 -1.1,2 0.2,0.7 1.2,1.6 1.2,2.8 0,2.4 -3.8,2.4 -3.8,0 0,-1.2 1,-2 1.2,-2.8 0.3,-1.4 -0.6,-2 -1.1,-2 -1.6,0 -4.1,1.7 -4.1,4.6 0,3.2 2.7,5.8 6,5.8 3.3,0 6,-2.6 6,-5.8 -0.1,-2.8 -2.7,-4.5 -4.3,-4.6"
       inkscape:connector-curvature="0"
       style="fill:#4c3526" />
    <path
       id="path10"
       d="m 24.3,50.7 c 2.2,1 4.8,1.5 7.7,1.5 2.9,0 5.5,-0.6 7.7,-1.5 C 37.6,49.6 35,49 32,49 c -3,0 -5.6,0.6 -7.7,1.7"
       inkscape:connector-curvature="0"
       style="fill:#ff717f" />
    <path
       id="path12"
       d="M 47,36 C 32,36 32,36 17.1,36 15,36 15,40 17,40 c 10.4,0 19.6,0 30,0 2,0 2,-4 0,-4"
       inkscape:connector-curvature="0"
       style="fill:#ffffff" />
    <g
       id="g14"
       style="fill:#664e27">
      <circle
         id="circle16"
         r="5"
         cy="23"
         cx="20.5" />
      <circle
         id="circle18"
         r="5"
         cy="23"
         cx="43.5" />
    </g>
  </g>
</svg>
