<?xml version="1.0" encoding="UTF-8" standalone="no"?>
<svg
   xmlns:dc="http://purl.org/dc/elements/1.1/"
   xmlns:cc="http://creativecommons.org/ns#"
   xmlns:rdf="http://www.w3.org/1999/02/22-rdf-syntax-ns#"
   xmlns:svg="http://www.w3.org/2000/svg"
   xmlns="http://www.w3.org/2000/svg"
   xmlns:sodipodi="http://sodipodi.sourceforge.net/DTD/sodipodi-0.dtd"
   xmlns:inkscape="http://www.inkscape.org/namespaces/inkscape"
   viewBox="0 0 64 64"
   enable-background="new 0 0 64 64"
   id="svg114"
   version="1.1"
   inkscape:version="0.91 r13725"
   sodipodi:docname="heart-eyes.svg"
   inkscape:export-filename="/Users/mccallalexander/source/projects/trash/unity/New Unity Project/Assets/Materials/heart-eyes.png"
   inkscape:export-xdpi="773.4375"
   inkscape:export-ydpi="773.4375">
  <metadata
     id="metadata132">
    <rdf:RDF>
      <cc:Work
         rdf:about="">
        <dc:format>image/svg+xml</dc:format>
        <dc:type
           rdf:resource="http://purl.org/dc/dcmitype/StillImage" />
        <dc:title></dc:title>
      </cc:Work>
    </rdf:RDF>
  </metadata>
  <defs
     id="defs130" />
  <sodipodi:namedview
     pagecolor="#ffdd67"
     bordercolor="#666666"
     borderopacity="1"
     objecttolerance="10"
     gridtolerance="10"
     guidetolerance="10"
     inkscape:pageopacity="1"
     inkscape:pageshadow="2"
     inkscape:window-width="640"
     inkscape:window-height="480"
     id="namedview128"
     showgrid="false" />
  <g
     id="g5882"
     transform="matrix(0.52200755,0,0,0.50408843,15.312206,15.878469)">
    <path
       id="path116"
       d="M 62,32 C 62,48.6 48.6,62 32,62 15.4,62 2,48.6 2,32 2,15.4 15.4,2 32,2 48.6,2 62,15.4 62,32 Z"
       inkscape:connector-curvature="0"
       style="fill:#ffdd67" />
    <path
       d="M 61.8,13.2 C 61.3,10.5 59.8,8.3 57.3,7.6 54.6,6.9 52.2,7.9 49.9,10.3 48.6,6.7 46.6,4 43.4,2.6 40.2,1.2 37,2.2 35,4.7 c -2.1,2.6 -2.9,6.7 -0.7,12 2.1,5 11.4,15 11.7,15.3 0.4,-0.2 10.8,-6.7 13.3,-9.9 2.5,-3.1 3,-6.2 2.5,-8.9"
       id="path120"
       inkscape:connector-curvature="0"
       style="fill:#f46767" />
    <path
       d="M 29,4.7 C 27,2.2 23.8,1.2 20.6,2.6 17.4,4 15.4,6.7 14.1,10.3 11.7,8 9.3,6.9 6.6,7.7 c -2.4,0.7 -4,2.9 -4.5,5.6 -0.5,2.6 0.1,5.8 2.5,8.9 2.6,3.1 13,9.6 13.4,9.8 0.3,-0.3 9.6,-10.3 11.7,-15.3 2.2,-5.3 1.4,-9.3 -0.7,-12"
       id="path122"
       inkscape:connector-curvature="0"
       style="fill:#f46767" />
    <path
       id="path124"
       d="M 49,38.1 C 49,37.3 48.5,36.3 47.2,36 43.7,35.3 38.6,34.7 32,34.7 c -6.6,0 -11.7,0.7 -15.2,1.3 -1.4,0.3 -1.8,1.3 -1.8,2.1 0,7.3 5.6,14.6 17,14.6 11.4,-0.1 17,-7.4 17,-14.6"
       inkscape:connector-curvature="0"
       style="fill:#664e27" />
    <path
       id="path126"
       d="m 44.7,38.3 c -2.2,-0.4 -6.8,-1 -12.7,-1 -5.9,0 -10.5,0.6 -12.7,1 -1.3,0.2 -1.4,0.7 -1.3,1.5 0.1,0.4 0.1,1 0.3,1.6 0.1,0.6 0.3,0.9 1.3,0.8 1.9,-0.2 23,-0.2 24.9,0 1,0.1 1.1,-0.2 1.3,-0.8 0.1,-0.6 0.2,-1.1 0.3,-1.6 0,-0.8 -0.1,-1.3 -1.4,-1.5"
       inkscape:connector-curvature="0"
       style="fill:#ffffff" />
  </g>
</svg>
